<svg id="Layer_1" data-name="Layer 1" xmlns="http://www.w3.org/2000/svg" viewBox="0 0 1024 768"><title>clipPath_</title><path d="M1024,110.68V883.42c0,28.64-10.83,56.41-31,76.77-.79.8-1.58,1.58-2.4,2.37C938.15,1013,837.08,1024.73,649.5,967a112.14,112.14,0,0,0-27.75-4.76,181.77,181.77,0,0,1-35.34-4.83C425.59,917.12,655.72,649.06,192.06,505a108.23,108.23,0,0,1-49.83-32.27,275.3,275.3,0,0,1-17.7-29.1C-3.34,199.38,410.12.66,633.21,0H913.32A110.68,110.68,0,0,1,1024,110.68Z"/><path d="M383.71,343a69.9,69.9,0,0,1-12.86-21.15A199.41,199.41,0,0,0,383.71,343Z"/></svg>