<svg id="Layer_1" data-name="Layer 1" xmlns="http://www.w3.org/2000/svg" viewBox="0 0 1024 768"><title>clipPath_1</title><path d="M1024.5,79.93V641.49a79.23,79.23,0,0,1-22.5,55.79c-.57.58-1.15,1.15-1.74,1.72-38.15,36.67-111.6,45.18-247.91,3.24a81.66,81.66,0,0,0-20.17-3.46,131.56,131.56,0,0,1-25.68-3.51C589.63,666,756.87,471.18,419.92,366.48A78.66,78.66,0,0,1,383.71,343a199.41,199.41,0,0,1-12.86-21.15C277.92,144.39,578.39,0,740.51-.5H944.07A80.43,80.43,0,0,1,1024.5,79.93Z"/><path d="M383.71,343a69.9,69.9,0,0,1-12.86-21.15A199.41,199.41,0,0,0,383.71,343Z"/></svg>