<?xml version="1.0" standalone="no"?><svg xmlns="http://www.w3.org/2000/svg" viewBox="0 0 1440 320"><path fill="#4e7067" fill-opacity="1" d="M0,32L24,53.3C48,75,96,117,144,154.7C192,192,240,224,288,245.3C336,267,384,277,432,245.3C480,213,528,139,576,133.3C624,128,672,192,720,213.3C768,235,816,213,864,186.7C912,160,960,128,1008,96C1056,64,1104,32,1152,21.3C1200,11,1248,21,1296,48C1344,75,1392,117,1416,138.7L1440,160L1440,320L1416,320C1392,320,1344,320,1296,320C1248,320,1200,320,1152,320C1104,320,1056,320,1008,320C960,320,912,320,864,320C816,320,768,320,720,320C672,320,624,320,576,320C528,320,480,320,432,320C384,320,336,320,288,320C240,320,192,320,144,320C96,320,48,320,24,320L0,320Z"></path></svg>